# AST/ASF file generated using VICON BodyLanguage
# -----------------------------------------------
:version 1.10
:name VICON
:units
  mass 1.0
  length 0.45
  angle deg
:documentation
   .ast/.asf automatically generated from VICON data using
   VICON BodyBuilder and BodyLanguage model FoxedUp or BRILLIANT.MOD
:root
   order TX TY TZ RX RY RZ
   axis XYZ
   position 0 0 0  
   orientation 0 0 0 
:bonedata
  begin
     id 1 
     name lhipjoint
     direction 0.561001 -0.76473 0.316963 
     length 2.4722 
     axis 0 0 0  XYZ
  end
  begin
     id 2 
     name lfemur
     direction 0.34202 -0.939693 0  
     length 7.59403  
     axis 0 0 20  XYZ
    dof rx ry rz
    limits (-160.0 20.0)
           (-70.0 70.0)
           (-60.0 70.0)
  end
  begin
     id 3 
     name ltibia
     direction 0.34202 -0.939693 0   
     length 7.89655   
     axis 0 0 20   XYZ
    dof rx
    limits (-10.0 170.0)
  end
  begin
     id 4 
     name lfoot
     direction 0.061296 -0.168409 0.98381   
     length 2.73287   
     axis -90 7.62852e-016 20   XYZ
    dof rx rz
    limits (-45.0 90.0)
           (-70.0 20.0)
  end
  begin
     id 5 
     name ltoes
     direction 1.53547e-011 -4.21984e-011 1   
     length 1.37057   
     axis -90 7.62852e-016 20   XYZ
    dof rx
    limits (-90.0 20.0)
  end
  begin
     id 6 
     name rhipjoint
     direction -0.559611 -0.765599 0.317323   
     length 2.46939  
     axis 0 0 0  XYZ 
  end
  begin
     id 7 
     name rfemur
     direction -0.34202 -0.939693 0   
     length 7.53712   
     axis 0 0 -20   XYZ
    dof rx ry rz
    limits (-160.0 20.0)
           (-70.0 70.0)
           (-70.0 60.0)
  end
  begin
     id 8 
     name rtibia
     direction -0.34202 -0.939693 0   
     length 8.12549   
     axis 0 0 -20   XYZ
    dof rx
    limits (-10.0 170.0)
 end
 begin
     id 9 
     name rfoot
     direction -0.066984 -0.184037 0.980634   
     length 2.67541  
     axis -90 -7.62852e-016 -20   XYZ
    dof rx rz
    limits (-45.0 90.0)
           (-20.0 70.0)
  end
  begin
     id 10 
     name rtoes
     direction -1.53549e-011 -4.21786e-011 1   
     length 1.34085   
     axis -90 -7.62852e-016 -20   XYZ
    dof rx
    limits (-90.0 20.0)
  end
  begin
     id 11 
     name lowerback
     direction -0.0522728 0.992594 -0.109658   
     length 2.05633   
     axis 0 0 0   XYZ
    dof rx ry rz
    limits (-20.0 45.0)
           (-30.0 30.0)
           (-30.0 30.0)
  end
  begin
     id 12 
     name upperback
     direction 0.00589338 0.999977 0.00335704   
     length 2.05845   
     axis 0 0 0   XYZ
    dof rx ry rz
    limits (-20.0 45.0)
           (-30.0 30.0)
           (-30.0 30.0)
  end
  begin
     id 13 
     name thorax
     direction 0.0292928 0.998059 0.0549487   
     length 2.09281   
     axis 0 0 0   XYZ
    dof rx ry rz
    limits (-20.0 45.0)
           (-30.0 30.0)
           (-30.0 30.0)
  end
  begin
     id 14 
     name lowerneck
     direction 0.0356368 0.980775 0.191858   
     length 1.84767   
     axis 0 0 0   XYZ
    dof rx ry rz
    limits (-20.0 45.0)
           (-30.0 30.0)
           (-30.0 30.0)
  end
  begin
     id 15 
     name upperneck
     direction -0.0227605 0.98931 -0.14404   
     length 1.89582   
     axis 0 0 0   XYZ
    dof rx ry rz
    limits (-20.0 45.0)
           (-30.0 30.0)
           (-30.0 30.0)
  end
  begin
     id 16
     name head
     direction -0.00932985 0.997511 -0.0698904  
     length 1.90213  
     axis 0 0 0   XYZ
    dof rx ry rz
    limits (-20.0 45.0)
           (-30.0 30.0)
           (-30.0 30.0)
  end
  begin
     id 17 
     name lclavicle
     direction 0.873442 0.479511 0.0846686  
     length 3.41193  
     axis 0 0 0   XYZ
    dof ry rz
    limits (-20.0 10.0)
           (0.0 20.0)
  end
  begin
     id 18 
     name lhumerus
     direction 1 -4.4897e-011 -5.62117e-018   
     length 5.59864   
     axis 180 -30 -90   XYZ
    dof rx ry rz
    limits (-60.0 90.0)
           (-90.0 90.0)
           (-90.0 90.0)
  end
  begin
     id 19
     name lradius
     direction 1 -4.48966e-011 -6.26295e-027   
     length 3.59542   
     axis 180 -30 -90   XYZ
    dof rx
    limits (-10.0 170.0)
  end
  begin
     id 20
     name lwrist
     direction 1 -4.48947e-011 -1.74096e-026   
     length 1.79771   
     axis 1.04567e-014 90 90   XYZ
    dof ry
    limits (-180.0 0.0)
 end
  begin
     id 21 
     name lhand
     direction 1 -4.49085e-011 -3.48469e-026   
     length 0.572014   
     axis 2.22196e-014 90 90   XYZ
    dof rx rz
    limits (-90.0 90.0)
           (-45.0 45.0)
  end
  begin
     id 22 
     name lfingers
     direction 1 -4.48884e-011 -6.96135e-026   
     length 0.461173   
     axis 4.44383e-014 90 90   XYZ
    dof rx
    limits (0.0 90.0)
  end
  begin
     id 23
     name lthumb
     direction 0.707107 -6.34976e-011 0.707107   
     length 0.662154   
     axis -90 45 -5.4397e-014   XYZ
    dof rx rz
    limits (-45.0 45.0)
           (-45.0 45.0)
  end
  begin
     id 24 
     name rclavicle
     direction -0.890242 0.443271 0.104786   
     length 3.46753  
     axis 0 0 0   XYZ 
    dof ry rz
    limits (-10.0 20.0)
           (-20.0 0.0)
  end
  begin
     id 25 
     name rhumerus
     direction -1 -4.48963e-011 -5.41723e-018  
     length 5.8094   
     axis 180 30 90   XYZ
    dof rx ry rz
    limits (-90.0 60.0)
           (-90.0 90.0)
           (-90.0 90.0)
  end
  begin
     id 26 
     name rradius
     direction -1 -4.48958e-011 -6.51059e-027   
     length 3.66953   
     axis 180 30 90   XYZ
    dof rx
    limits (-10.0 170.0)
  end
  begin
     id 27 
     name rwrist
     direction -1 -4.48975e-011 -1.74124e-026   
     length 1.83476   
     axis 1.04567e-014 -90 -90   XYZ
    dof ry
    limits (-180.0 0.0)
  end
  begin
     id 28
     name rhand
     direction -1 -4.49013e-011 -3.48326e-026   
     length 0.57843   
     axis 2.22196e-014 -90 -90   XYZ
    dof rx rz
    limits (-90.0 90.0)
           (-45.0 45.0)
  end
  begin
     id 29
     name rfingers
     direction -1 -4.49023e-011 -6.9669e-026   
     length 0.466345   
     axis 4.44383e-014 -90 -90   XYZ
    dof rx
    limits (0.0 90.0)
  end
  begin
     id 30
     name rthumb
     direction -0.707107 -6.34926e-011 0.707107   
     length 0.669581   
     axis -90 -45 5.4397e-014   XYZ
    dof rx rz
    limits (-45.0 45.0)
           (-45.0 45.0)
  end
:hierarchy
  begin
    root lhipjoint rhipjoint lowerback
    lhipjoint lfemur
    lfemur ltibia
    ltibia lfoot
    lfoot ltoes
    rhipjoint rfemur
    rfemur rtibia
    rtibia rfoot
    rfoot rtoes
    lowerback upperback
    upperback thorax
    thorax lowerneck lclavicle rclavicle
    lowerneck upperneck
    upperneck head
    lclavicle lhumerus
    lhumerus lradius
    lradius lwrist
    lwrist lhand lthumb
    lhand lfingers
    rclavicle rhumerus
    rhumerus rradius
    rradius rwrist
    rwrist rhand rthumb
    rhand rfingers
  end

#!OML:ASF H:\SkateBoarding\Project 1\Capture day 1\Session 1\Skater.ASF
:FULLY-SPECIFIED
:DEGREES
336
root 0.200921 19.7176 39.0047 1.97609 50.1122 2.32948
lowerback 4.61657 -0.530989 -1.62568
upperback -1.5853 -0.740592 1.66252
thorax -4.18583 -0.300355 2.69287
lowerneck -7.34461 0.167089 2.8358
upperneck 46.7308 5.57529 -8.66928
head 19.8668 2.29587 -3.69875
rclavicle -6.81086e-014 -2.38542e-015
rhumerus -51.7536 -19.7508 -42.8209
rradius 29.6363
rwrist -2.28869
rhand -36.0876 -12.3608
rfingers 7.12502
rthumb -9.1943 -42.1403
lclavicle -6.81086e-014 -2.38542e-015
lhumerus -26.4761 -16.993 85.7045
lradius 44.6201
lwrist 27.433
lhand -11.1546 14.7276
lfingers 7.12502
lthumb 14.8715 44.1739
rfemur -14.0048 -2.99331 23.1956
rtibia 21.8969
rfoot -27.3421 0.50553
rtoes -2.57813
lfemur -9.74525 4.61518 -21.7154
ltibia 43.5365
lfoot -28.8705 -7.23076
ltoes -9.39684
337
root 0.131966 19.7088 39.0051 1.99939 50.3555 2.4478
lowerback 4.48692 -0.664179 -1.64749
upperback -1.60932 -0.917201 1.69
thorax -4.12631 -0.387719 2.74571
lowerneck -7.35797 0.200383 2.90563
upperneck 46.7288 5.55292 -8.57436
head 19.8615 2.30887 -3.66689
rclavicle -1.11941e-014 2.38542e-015
rhumerus -52.7425 -19.8758 -41.9289
rradius 29.5682
rwrist -2.47438
rhand -36.2588 -12.7071
rfingers 7.12502
rthumb -9.3595 -42.4793
lclavicle -1.11941e-014 2.38542e-015
lhumerus -26.3784 -17.1087 85.9324
lradius 44.4941
lwrist 27.4559
lhand -11.2798 14.7651
lfingers 7.12502
lthumb 14.7509 44.2202
rfemur -14.256 -3.00036 23.2625
rtibia 22.1842
rfoot -27.4981 0.377788
rtoes -2.61696
lfemur -9.00582 5.64274 -22.308
ltibia 43.3868
lfoot -27.4124 -8.30821
ltoes -7.93199
338
root 0.0619275 19.6989 39.0031 2.03071 50.5966 2.56758
lowerback 4.36517 -0.798448 -1.65869
upperback -1.63707 -1.09491 1.7108
thorax -4.07507 -0.475903 2.78527
lowerneck -7.37495 0.236359 2.97306
upperneck 46.7263 5.52834 -8.4652
head 19.8557 2.32189 -3.62766
rclavicle 4.22293e-014 -4.77083e-015
rhumerus -53.7382 -20.0029 -41.0525
rradius 29.5053
rwrist -2.624
rhand -36.419 -13.0176
rfingers 7.12502
rthumb -9.51407 -42.7828
lclavicle 4.22293e-014 -4.77083e-015
lhumerus -26.2734 -17.2331 86.1551
lradius 44.3756
lwrist 27.4963
lhand -11.4578 14.7751
lfingers 7.12502
lthumb 14.5794 44.2427
rfemur -14.5457 -3.0558 23.3268
rtibia 22.5116
rfoot -27.617 0.285115
rtoes -2.65915
lfemur -8.22847 6.66213 -22.8742
ltibia 43.1174
lfoot -25.8314 -9.26574
ltoes -6.46385
339
root -0.00945214 19.6876 38.9992 2.06013 50.8341 2.67913
lowerback 4.25008 -0.933244 -1.66091
upperback -1.66651 -1.27304 1.72672
thorax -4.02939 -0.564541 2.81429
lowerneck -7.39143 0.27539 3.04388
upperneck 46.7201 5.50143 -8.34477
head 19.8461 2.33561 -3.58348
rclavicle -5.24667e-014 9.54166e-015
rhumerus -54.7416 -20.1404 -40.1945
rradius 29.4519
rwrist -2.73941
rhand -36.5519 -13.3274
rfingers 7.12502
rthumb -9.64234 -43.0867
lclavicle -5.24667e-014 9.54166e-015
lhumerus -26.1633 -17.3736 86.3723
lradius 44.2678
lwrist 27.5617
lhand -11.7104 14.7649
lfingers 7.12502
lthumb 14.336 44.2499
rfemur -14.8805 -3.14045 23.3957
rtibia 22.8944
rfoot -27.7197 0.208429
rtoes -2.71217
lfemur -7.41084 7.66822 -23.4047
ltibia 42.718
lfoot -24.1004 -10.0757
ltoes -4.96371
340
root -0.0824528 19.6744 38.9936 2.08419 51.0619 2.78389
lowerback 4.14503 -1.06945 -1.66059
upperback -1.69354 -1.45312 1.74045
thorax -3.98677 -0.654257 2.83937
lowerneck -7.41008 0.322005 3.11438
upperneck 46.7103 5.47854 -8.20908
head 19.8342 2.35221 -3.53059
rclavicle 6.95746e-014 8.74653e-015
rhumerus -55.7326 -20.277 -39.3707
rradius 29.4053
rwrist -2.83888
rhand -36.6569 -13.6395
rfingers 7.12502
rthumb -9.74363 -43.3941
lclavicle 6.95746e-014 8.74653e-015
lhumerus -26.0477 -17.5248 86.5835
lradius 44.1701
lwrist 27.6555
lhand -12.0391 14.7272
lfingers 7.12502
lthumb 14.0193 44.2344
rfemur -15.266 -3.24796 23.4716
rtibia 23.3502
rfoot -27.8108 0.14799
rtoes -2.77347
lfemur -6.54517 8.64758 -23.9015
ltibia 42.1778
lfoot -22.223 -10.6987
ltoes -3.41787
341
root -0.156831 19.6591 38.9861 2.11501 51.2922 2.89311
lowerback 4.04133 -1.2144 -1.66697
upperback -1.71638 -1.64534 1.75379
thorax -3.93956 -0.75 2.86808
lowerneck -7.4309 0.379522 3.18987
upperneck 46.6922 5.46806 -8.06978
head 19.8187 2.37455 -3.47429
rclavicle 5.90887e-014 -1.59028e-014
rhumerus -56.6898 -20.4024 -38.5968
rradius 29.3591
rwrist -2.93705
rhand -36.746 -13.9561
rfingers 7.12502
rthumb -9.82963 -43.7066
lclavicle 5.90887e-014 -1.59028e-014
lhumerus -25.9247 -17.6794 86.7888
lradius 44.0849
lwrist 27.7836
lhand -12.4623 14.6839
lfingers 7.12502
lthumb 13.6114 44.2189
rfemur -15.7152 -3.41211 23.5478
rtibia 23.8953
rfoot -27.8797 0.115651
rtoes -2.84293
lfemur -5.62908 9.57706 -24.3755
ltibia 41.4804
lfoot -20.1919 -11.1143
ltoes -1.65168
342
root -0.233301 19.641 38.9767 2.15441 51.5139 3.01388
lowerback 3.94935 -1.35712 -1.68485
upperback -1.73383 -1.83556 1.76316
thorax -3.89318 -0.844605 2.89865
lowerneck -7.45514 0.441358 3.27156
upperneck 46.6658 5.45753 -7.92322
head 19.7981 2.39833 -3.41509
rclavicle -5.16095e-014 -5.56597e-015
rhumerus -57.6299 -20.5342 -37.864
rradius 29.3197
rwrist -3.03957
rhand -36.8151 -14.2961
rfingers 7.12502
rthumb -9.8963 -44.0435
lclavicle -5.16095e-014 -5.56597e-015
lhumerus -25.7922 -17.8483 86.9951
lradius 44.0103
lwrist 27.9317
lhand -12.9782 14.6381
lfingers 7.12502
lthumb 13.1143 44.2057
rfemur -16.2317 -3.60486 23.6221
rtibia 24.5388
rfoot -27.9418 0.0979289
rtoes -2.92597
lfemur -4.65694 10.4469 -24.8318
ltibia 40.6127
lfoot -18.0156 -11.2725
ltoes 0.386614
343
root -0.311926 19.6198 38.9654 2.20167 51.73 3.1466
lowerback 3.87037 -1.50372 -1.72362
upperback -1.7457 -2.03223 1.77386
thorax -3.84704 -0.941983 2.94254
lowerneck -7.48432 0.513986 3.35069
upperneck 46.6296 5.46012 -7.77058
head 19.7733 2.42698 -3.34966
rclavicle 9.17143e-014 1.43125e-014
rhumerus -58.5306 -20.6607 -37.1858
rradius 29.2818
rwrist -3.15088
rhand -36.8651 -14.6552
rfingers 7.12502
rthumb -9.94451 -44.4003
lclavicle 9.17143e-014 1.43125e-014
lhumerus -25.6581 -18.0156 87.2011
lradius 43.9541
lwrist 28.1021
lhand -13.5793 14.592
lfingers 7.12502
lthumb 12.5347 44.1961
rfemur -16.817 -3.82855 23.6942
rtibia 25.2857
rfoot -27.9941 0.0898621
rtoes -3.05673
lfemur -3.62181 11.2364 -25.2727
ltibia 39.5576
lfoot -15.7264 -11.1129
ltoes 2.72525
344
root -0.393187 19.5952 38.9531 2.25242 51.9368 3.28556
lowerback 3.79479 -1.65206 -1.79587
upperback -1.74447 -2.23286 1.79189
thorax -3.78715 -1.04084 3.01235
lowerneck -7.52069 0.594951 3.44049
upperneck 46.5775 5.47334 -7.62604
head 19.7417 2.45996 -3.28793
rclavicle -7.86193e-014 3.18055e-015
rhumerus -59.382 -20.7929 -36.5628
rradius 29.2461
rwrist -3.27054
rhand -36.9094 -15.019
rfingers 7.12502
rthumb -9.98721 -44.7621
lclavicle -7.86193e-014 3.18055e-015
lhumerus -25.5081 -18.1821 87.4068
lradius 43.9146
lwrist 28.2888
lhand -14.2503 14.5512
lfingers 7.12502
lthumb 11.8878 44.1937
rfemur -17.4676 -4.06166 23.7719
rtibia 26.1287
rfoot -28.0525 0.0807591
rtoes -3.23945
lfemur -2.52327 11.9333 -25.6928
ltibia 38.3056
lfoot -13.3756 -10.5595
ltoes 5.35758
345
root -0.476797 19.5669 38.9387 2.32632 52.1426 3.45236
lowerback 3.73296 -1.79695 -1.89416
upperback -1.73844 -2.43068 1.80283
thorax -3.72889 -1.13788 3.08907
lowerneck -7.56563 0.679019 3.53495
upperneck 46.5165 5.48471 -7.47347
head 19.7058 2.4934 -3.22305
rclavicle -1.67476e-014 1.43125e-014
rhumerus -60.2142 -20.9413 -35.9814
rradius 29.2139
rwrist -3.38931
rhand -36.948 -15.3799
rfingers 7.12502
rthumb -10.0244 -45.1212
lclavicle -1.67476e-014 1.43125e-014
lhumerus -25.3533 -18.3736 87.6175
lradius 43.8978
lwrist 28.4864
lhand -15.012 14.5581
lfingers 7.12502
lthumb 11.1532 44.2417
rfemur -18.179 -4.33554 23.839
rtibia 27.0544
rfoot -28.0971 0.0901271
rtoes -3.47252
lfemur -1.36225 12.5135 -26.1123
ltibia 36.8463
lfoot -11.0726 -9.52655
ltoes 8.18982
346
root -0.562882 19.5353 38.9226 2.4169 52.3519 3.63785
lowerback 3.68484 -1.946 -2.02188
upperback -1.72755 -2.63581 1.81196
thorax -3.67094 -1.23805 3.1808
lowerneck -7.61236 0.769124 3.64554
upperneck 46.441 5.49954 -7.32373
head 19.6616 2.5301 -3.16161
rclavicle 1.12115e-013 2.38542e-015
rhumerus -61.0117 -21.0992 -35.452
rradius 29.1888
rwrist -3.49674
rhand -36.9829 -15.7227
rfingers 7.12502
rthumb -10.0581 -45.4623
lclavicle 1.12115e-013 2.38542e-015
lhumerus -25.1968 -18.5679 87.8234
lradius 43.9036
lwrist 28.6737
lhand -15.8046 14.5749
lfingers 7.12502
lthumb 10.3887 44.2983
rfemur -18.9397 -4.64199 23.9007
rtibia 28.0429
rfoot -28.1349 0.116042
rtoes -3.75565
lfemur -0.143499 12.9614 -26.524
ltibia 35.1776
lfoot -8.94839 -7.95721
ltoes 10.9189
347
root -0.651312 19.5004 38.9049 2.53193 52.5686 3.85114
lowerback 3.6457 -2.09486 -2.18344
upperback -1.70925 -2.84275 1.81519
thorax -3.60801 -1.33874 3.28516
lowerneck -7.66773 0.861278 3.77246
upperneck 46.354 5.50939 -7.17145
head 19.6119 2.56729 -3.10259
rclavicle 1.2357e-013 8.74653e-015
rhumerus -61.7827 -21.2769 -34.9703
rradius 29.1694
rwrist -3.60192
rhand -37.0226 -16.0312
rfingers 7.12502
rthumb -10.0965 -45.7689
lclavicle 1.2357e-013 8.74653e-015
lhumerus -25.0284 -18.7783 88.028
lradius 43.9349
lwrist 28.8412
lhand -16.6088 14.6349
lfingers 7.12502
lthumb 9.61282 44.3955
rfemur -19.7401 -4.98519 23.9518
rtibia 29.0785
rfoot -28.1637 0.161424
rtoes -4.08488
lfemur 1.12903 13.2557 -26.9362
ltibia 33.2955
lfoot -7.1361 -5.8771
ltoes 13.2984
348
root -0.742109 19.4625 38.8856 2.66427 52.7994 4.08243
lowerback 3.61683 -2.24736 -2.37188
upperback -1.68359 -3.0562 1.81325
thorax -3.54055 -1.44247 3.39934
lowerneck -7.7356 0.958022 3.90957
upperneck 46.2569 5.51572 -7.00731
head 19.5584 2.60541 -3.03998
rclavicle -2.37548e-014 1.11319e-014
rhumerus -62.5297 -21.4819 -34.5312
rradius 29.1605
rwrist -3.68726
rhand -37.0642 -16.2878
rfingers 7.12502
rthumb -10.1366 -46.0237
lclavicle -2.37548e-014 1.11319e-014
lhumerus -24.8432 -19 88.2274
lradius 43.9862
lwrist 28.9843
lhand -17.4021 14.7104
lfingers 7.12502
lthumb 8.84732 44.5049
rfemur -20.5738 -5.36774 23.9985
rtibia 30.1493
rfoot -28.1818 0.226679
rtoes -4.45389
lfemur 2.45442 13.3697 -27.3452
ltibia 31.197
lfoot -5.76373 -3.50623
ltoes 15.1848
349
root -0.83514 19.4218 38.8647 2.81396 53.0501 4.33106
lowerback 3.59822 -2.40074 -2.58204
upperback -1.65099 -3.27237 1.80097
thorax -3.46957 -1.54756 3.51486
lowerneck -7.81288 1.05309 4.06864
upperneck 46.1506 5.50461 -6.82964
head 19.4997 2.64134 -2.97771
rclavicle 1.23147e-013 -2.38542e-015
rhumerus -63.2685 -21.7224 -34.1333
rradius 29.1663
rwrist -3.76722
rhand -37.1123 -16.4866
rfingers 7.12502
rthumb -10.183 -46.2202
lclavicle 1.23147e-013 -2.38542e-015
lhumerus -24.6416 -19.2481 88.4169
lradius 44.0636
lwrist 29.0974
lhand -18.1491 14.7942
lfingers 7.12502
lthumb 8.12647 44.618
rfemur -21.4398 -5.79172 24.0403
rtibia 31.2522
rfoot -28.1937 0.313476
rtoes -4.8286
lfemur 3.83855 13.2941 -27.7529
ltibia 28.8695
lfoot -4.80111 -1.11452
ltoes 16.3906
350
root -0.930732 19.3781 38.8424 2.98259 53.3192 4.59837
lowerback 3.59155 -2.5538 -2.81889
upperback -1.61062 -3.48995 1.77818
thorax -3.39484 -1.65333 3.63434
lowerneck -7.90816 1.14815 4.23689
upperneck 46.0382 5.47571 -6.62363
head 19.4391 2.67425 -2.90618
rclavicle 1.16637e-013 -7.95139e-016
rhumerus -63.9951 -21.9911 -33.7913
rradius 29.1866
rwrist -3.86025
rhand -37.176 -16.6354
rfingers 7.12502
rthumb -10.2444 -46.3659
lclavicle 1.16637e-013 -7.95139e-016
lhumerus -24.4152 -19.5257 88.5955
lradius 44.1602
lwrist 29.181
lhand -18.8369 14.8592
lfingers 7.12502
lthumb 7.46259 44.7076
rfemur -22.3415 -6.23255 24.0766
rtibia 32.3894
rfoot -28.2089 0.401314
rtoes -5.20173
lfemur 5.29218 12.9808 -28.1698
ltibia 26.2935
lfoot -4.11441 1.02461
ltoes 17.0268
